<?xml version="1.0" encoding="UTF-8" standalone="no"?>
<!DOCTYPE svg PUBLIC "-//W3C//DTD SVG 1.1//EN" "http://www.w3.org/Graphics/SVG/1.1/DTD/svg11.dtd">
<svg width="100%" height="100%" viewBox="0 0 2845 548" version="1.1" xmlns="http://www.w3.org/2000/svg" xmlns:xlink="http://www.w3.org/1999/xlink" xml:space="preserve" xmlns:serif="http://www.serif.com/" style="fill-rule:evenodd;clip-rule:evenodd;">
    <g transform="matrix(1.13618,0,0,1,0,0)">
        <rect x="0" y="0" width="2504" height="548" style="fill:rgb(5,0,7);fill-rule:nonzero;"/>
    </g>
    <g transform="matrix(1.27157,0,0,1,-335.198,0)">
        <rect x="1238" y="14" width="1252" height="520" style="fill:rgb(255,255,75);fill-rule:nonzero;"/>
    </g>
    <rect x="14" y="14" width="117.976" height="520" style="fill:rgb(255,255,75);fill-rule:nonzero;"/>
    <path d="M1219,337.723L1075.76,337.723C1076.53,349.611 1080.74,359.279 1088.37,366.727C1096.16,374.174 1105.2,377.898 1115.48,377.898C1133.86,377.898 1148.27,373.236 1158.71,357.91L1213.63,374.668C1193.22,407.467 1161.52,420.867 1118.52,420.867C1086.89,420.867 1061.74,412.059 1043.04,394.441C1024.35,376.824 1015,353.12 1015,323.328C1015,296.544 1024.81,274.057 1044.44,255.867C1064.23,237.677 1088.53,228.582 1117.35,228.582C1146.33,228.582 1170.47,238.178 1189.79,257.371C1209.26,276.421 1219,300.268 1219,328.914L1219,337.723ZM1076.22,300.77L1157.08,300.77C1151.47,277.71 1138.62,266.18 1118.52,266.18C1106.99,266.18 1097.41,269.188 1089.78,275.203C1082.3,281.219 1077.78,289.741 1076.22,300.77Z" style="fill:rgb(255,255,75);fill-rule:nonzero;"/>
    <path d="M916.125,130.184L976.354,130.184L976.354,417L917.525,417L917.525,385.418L916.591,385.418C899.161,408.478 877.528,420.008 851.694,420.008C828.66,420.008 808.973,410.77 792.632,392.293C776.446,373.816 768.354,351.258 768.354,324.617C768.354,297.977 776.758,275.275 793.566,256.512C810.374,237.605 830.528,228.152 854.028,228.152C867.412,228.152 878.695,230.444 887.878,235.027C897.06,239.467 906.475,246.772 916.125,256.941L916.125,130.184ZM872.003,282.723C862.199,282.723 853.016,286.876 844.457,295.184C835.897,303.491 831.617,314.734 831.617,328.914C831.617,340.229 835.352,349.897 842.823,357.918C850.449,365.939 859.631,369.949 870.369,369.949C883.131,369.949 893.792,365.652 902.351,357.059C910.911,348.322 915.191,337.508 915.191,324.617C915.191,313.445 910.989,303.706 902.585,295.398C894.336,286.948 884.143,282.723 872.003,282.723Z" style="fill:rgb(255,255,75);fill-rule:nonzero;"/>
    <path d="M664.505,417L664.505,385.418L663.575,385.418C654.279,397.736 644.906,406.688 635.455,412.273C626.004,417.716 614.306,420.438 600.362,420.438C576.967,420.438 557.058,411.128 540.635,392.508C524.212,373.888 516,351.258 516,324.617C516,298.263 524.754,275.704 542.261,256.941C559.769,238.035 580.53,228.582 604.545,228.582C616.01,228.582 626.314,230.945 635.455,235.672C644.596,240.398 654.279,247.918 664.505,258.23L664.505,232.664L724,232.664L724,417L664.505,417ZM620.813,283.582C609.038,283.582 599.2,287.951 591.298,296.688C583.397,305.281 579.446,316.167 579.446,329.344C579.446,341.661 583.164,351.616 590.601,359.207C598.193,366.655 608.109,370.379 620.349,370.379C632.124,370.379 642.194,366.082 650.561,357.488C658.927,348.751 663.111,338.224 663.111,325.906C663.111,314.448 658.927,304.565 650.561,296.258C642.194,287.807 632.279,283.582 620.813,283.582Z" style="fill:rgb(255,255,75);fill-rule:nonzero;"/>
    <rect x="416.094" y="130.184" width="60" height="286.816" style="fill:rgb(255,255,75);fill-rule:nonzero;"/>
    <path d="M177.715,134.91L262.573,134.91C298.022,134.91 322.246,142.072 335.245,156.395C348.243,170.717 354.742,187.475 354.742,206.668C354.742,218.842 352.379,229.155 347.652,237.605C342.925,245.913 335.319,254.363 324.831,262.957C344.92,269.689 359.099,279.643 367.371,292.82C375.79,305.854 380,319.819 380,334.715C380,360.639 370.842,380.835 352.526,395.301C334.211,409.767 308.436,417 275.202,417L177.715,417L177.715,134.91ZM240.417,182.391L240.417,244.051L254.818,244.051C265.453,244.051 274.389,240.828 281.627,234.383C288.865,227.794 292.483,219.702 292.483,210.105C292.483,202.371 288.938,195.854 281.849,190.555C274.759,185.112 265.896,182.391 255.261,182.391L240.417,182.391ZM240.417,291.961L240.417,369.52L263.016,369.52C297.579,369.52 314.861,357.345 314.861,332.996C314.861,319.819 310.651,309.721 302.232,302.703C293.813,295.542 281.775,291.961 266.118,291.961L240.417,291.961Z" style="fill:rgb(255,255,75);fill-rule:nonzero;"/>
    <path d="M2307.65,134.48L2372.67,134.48L2372.67,320.535L2307.65,320.535L2307.65,134.48ZM2306,386.277C2306,376.538 2309.29,368.302 2315.88,361.57C2322.61,354.839 2330.78,351.473 2340.38,351.473C2349.83,351.473 2357.92,354.91 2364.65,361.785C2371.38,368.517 2374.75,376.681 2374.75,386.277C2374.75,395.587 2371.38,403.608 2364.65,410.34C2357.92,417.072 2349.83,420.438 2340.38,420.438C2330.78,420.438 2322.61,417.143 2315.88,410.555C2309.29,403.823 2306,395.73 2306,386.277Z" style="fill:rgb(5,0,7);fill-rule:nonzero;"/>
    <path d="M2174.95,168.855L2235.95,168.855L2235.95,232.234L2264.37,232.234L2264.37,282.723L2235.95,282.723L2235.95,417L2174.95,417L2174.95,282.723L2144.89,282.723L2144.89,232.234L2174.95,232.234L2174.95,168.855Z" style="fill:rgb(5,0,7);fill-rule:nonzero;"/>
    <path d="M1924,130.184L1987.01,130.184L1987.01,253.719C1998.32,245.125 2008.82,238.895 2018.52,235.027C2028.21,231.16 2039.44,229.227 2052.2,229.227C2074.01,229.227 2091.06,236.245 2103.34,250.281C2115.78,264.174 2122,283.51 2122,308.289L2122,417L2059.47,417L2059.47,317.957C2059.47,306.069 2056,296.115 2049.05,288.094C2042.27,279.93 2033.87,275.848 2023.85,275.848C2011.08,275.848 2001.71,280.503 1995.74,289.812C1989.92,299.122 1987.01,313.66 1987.01,333.426L1987.01,417L1924,417L1924,130.184Z" style="fill:rgb(5,0,7);fill-rule:nonzero;"/>
    <path d="M1823.23,406.473L1823.23,384.773C1805.49,405.685 1784.98,416.141 1761.69,416.141C1736.7,416.141 1715.8,407.189 1698.99,389.285C1682.33,371.382 1674,348.966 1674,322.039C1674,295.971 1682.64,273.842 1699.91,255.652C1717.34,237.319 1738.24,228.152 1762.61,228.152C1783.28,228.152 1803.49,238.178 1823.23,258.23L1823.23,232.664L1882,232.664L1882,419.578C1882,429.891 1878.45,441.707 1871.36,455.027C1864.42,468.491 1852.46,478.374 1835.49,484.676C1818.68,491.121 1799.17,494.344 1776.96,494.344C1749.35,494.344 1727.21,489.546 1710.56,479.949C1694.05,470.353 1682.18,453.882 1674.93,430.535L1741.33,430.535C1754.28,447.293 1768.32,455.672 1783.44,455.672C1795.16,455.672 1804.72,451.089 1812.13,441.922C1819.53,432.898 1823.23,421.082 1823.23,406.473ZM1737.16,323.543C1737.16,332.996 1741.56,342.234 1750.35,351.258C1759.3,360.138 1769.71,364.578 1781.59,364.578C1793.15,364.578 1803.03,360.353 1811.2,351.902C1819.53,343.309 1823.7,332.853 1823.7,320.535C1823.7,307.931 1819.76,297.547 1811.9,289.383C1804.03,281.219 1793.93,277.137 1781.59,277.137C1769.09,277.137 1758.53,281.434 1749.89,290.027C1741.41,298.478 1737.16,309.65 1737.16,323.543Z" style="fill:rgb(5,0,7);fill-rule:nonzero;"/>
    <path d="M1572,163.914C1572,154.604 1575.37,146.583 1582.1,139.852C1588.83,133.12 1596.92,129.754 1606.38,129.754C1615.83,129.754 1623.92,133.12 1630.65,139.852C1637.38,146.583 1640.75,154.604 1640.75,163.914C1640.75,173.367 1637.38,181.46 1630.65,188.191C1623.92,194.923 1615.83,198.289 1606.38,198.289C1596.92,198.289 1588.83,194.923 1582.1,188.191C1575.37,181.46 1572,173.367 1572,163.914ZM1572,232.234L1639.09,232.234L1639.09,417L1572,417L1572,232.234Z" style="fill:rgb(5,0,7);fill-rule:nonzero;"/>
    <path d="M1459.34,134.91L1524,134.91L1524,417L1460.01,417L1330.77,234.383L1330.77,417L1266,417L1266,134.91L1329.88,134.91L1459.34,316.238L1459.34,134.91Z" style="fill:rgb(5,0,7);fill-rule:nonzero;"/>
    <path d="M35.478,458.534L35.478,443.441L90.801,443.441L90.801,422.655L106.001,422.655L106.001,458.534L35.478,458.534Z" style="fill:rgb(5,0,7);fill-rule:nonzero;"/>
    <path d="M86.182,368.435L86.182,401.36C89.154,401.181 91.571,400.214 93.433,398.46C95.295,396.669 96.226,394.592 96.226,392.229C96.226,388.004 94.31,384.692 90.479,382.293L94.668,369.671C102.868,374.361 106.968,381.648 106.968,391.531C106.968,398.8 104.766,404.583 100.361,408.88C95.957,413.176 90.031,415.325 82.583,415.325C75.887,415.325 70.265,413.069 65.718,408.557C61.17,404.01 58.897,398.424 58.897,391.799C58.897,385.139 61.296,379.589 66.094,375.149C70.856,370.673 76.818,368.435 83.98,368.435L86.182,368.435ZM76.943,401.253L76.943,382.669C71.178,383.958 68.296,386.912 68.296,391.531C68.296,394.181 69.048,396.383 70.552,398.137C72.056,399.856 74.186,400.895 76.943,401.253Z" style="fill:rgb(5,0,7);fill-rule:nonzero;"/>
    <path d="M43.965,357.614L43.965,343.864L59.81,343.864L59.81,337.257L72.432,337.257L72.432,343.864L106.001,343.864L106.001,357.614L72.432,357.614L72.432,362.877L59.81,362.877L59.81,357.614L43.965,357.614Z" style="fill:rgb(5,0,7);fill-rule:nonzero;"/>
    <path d="M35.478,328.262L35.478,312.524L48.906,312.524C51.735,312.524 54.492,312.99 57.178,313.921C59.828,314.852 63.193,316.929 67.275,320.151L62.764,326.543C58.932,322.998 55.083,321.118 51.216,320.903L51.216,328.262L35.478,328.262Z" style="fill:rgb(5,0,7);fill-rule:nonzero;"/>
    <path d="M66.309,274.149L72.002,283.495C69.281,286.18 67.92,288.687 67.92,291.014C67.92,292.16 68.242,293.145 68.887,293.968C69.531,294.792 70.319,295.204 71.25,295.204C72.754,295.204 73.846,294.738 74.526,293.807C75.207,292.84 76.263,290.298 77.695,286.18C79.092,282.062 80.9,278.822 83.12,276.458C85.34,274.059 88.42,272.86 92.358,272.86C96.333,272.86 99.753,274.65 102.617,278.231C105.446,281.812 106.86,286.109 106.86,291.122C106.86,294.523 105.911,297.925 104.014,301.327C102.116,304.693 99.216,307.557 95.313,309.92L90.264,298.802C94.596,296.296 96.763,293.7 96.763,291.014C96.763,289.797 96.369,288.705 95.581,287.738C94.793,286.771 93.898,286.288 92.896,286.288C91.606,286.288 90.64,286.843 89.995,287.953C89.315,289.063 88.975,289.886 88.975,290.423C88.724,290.638 88.223,291.927 87.471,294.291C84.463,303.529 79.575,308.148 72.808,308.148C68.726,308.148 65.396,306.501 62.817,303.207C60.204,299.876 58.897,295.544 58.897,290.208C58.897,284.3 61.367,278.947 66.309,274.149Z" style="fill:rgb(5,0,7);fill-rule:nonzero;"/>
    <path d="M59.81,216.573L66.631,216.573L66.631,216.358C64.339,214.997 62.531,213.422 61.206,211.632C59.845,209.805 59.165,208.122 59.165,206.583C59.165,205.652 59.237,204.81 59.38,204.058L74.419,204.058C74.204,205.204 74.097,206.332 74.097,207.442C74.097,210.271 75.099,212.473 77.105,214.049C79.074,215.588 81.849,216.358 85.43,216.358L106.001,216.358L106.001,230.323L59.81,230.323L59.81,216.573Z" style="fill:rgb(5,0,7);fill-rule:nonzero;"/>
    <path d="M83.013,195.331C75.887,195.331 70.068,193.058 65.557,188.51C61.045,183.963 58.789,178.126 58.789,171C58.789,164.376 61.099,158.826 65.718,154.35C70.301,149.838 75.995,147.582 82.798,147.582C89.745,147.582 95.509,149.838 100.093,154.35C104.676,158.826 106.968,164.448 106.968,171.215C106.968,178.842 104.551,184.768 99.717,188.993C94.847,193.219 89.279,195.331 83.013,195.331ZM83.013,161.117C79.897,161.117 77.176,162.138 74.849,164.179C72.521,166.22 71.357,168.601 71.357,171.323C71.357,174.151 72.45,176.586 74.634,178.627C76.818,180.668 79.432,181.689 82.476,181.689C85.806,181.689 88.634,180.686 90.962,178.681C93.289,176.64 94.453,174.187 94.453,171.323C94.453,168.601 93.325,166.22 91.069,164.179C88.778,162.138 86.092,161.117 83.013,161.117Z" style="fill:rgb(5,0,7);fill-rule:nonzero;"/>
    <rect x="34.297" y="120.164" width="71.704" height="13.75" style="fill:rgb(5,0,7);fill-rule:nonzero;"/>
    <rect x="34.297" y="90.49" width="71.704" height="13.75" style="fill:rgb(5,0,7);fill-rule:nonzero;"/>
    <path d="M35.478,458.534L35.478,443.441L90.801,443.441L90.801,422.655L106.001,422.655L106.001,458.534L35.478,458.534Z" style="fill:none;fill-rule:nonzero;stroke:black;stroke-width:2px;"/>
    <path d="M86.182,368.435L86.182,401.36C89.154,401.181 91.571,400.214 93.433,398.46C95.295,396.669 96.226,394.592 96.226,392.229C96.226,388.004 94.31,384.692 90.479,382.293L94.668,369.671C102.868,374.361 106.968,381.648 106.968,391.531C106.968,398.8 104.766,404.583 100.361,408.88C95.957,413.176 90.031,415.325 82.583,415.325C75.887,415.325 70.265,413.069 65.718,408.557C61.17,404.01 58.897,398.424 58.897,391.799C58.897,385.139 61.296,379.589 66.094,375.149C70.856,370.673 76.818,368.435 83.98,368.435L86.182,368.435ZM76.943,401.253L76.943,382.669C71.178,383.958 68.296,386.912 68.296,391.531C68.296,394.181 69.048,396.383 70.552,398.137C72.056,399.856 74.186,400.895 76.943,401.253Z" style="fill:none;fill-rule:nonzero;stroke:black;stroke-width:2px;"/>
    <path d="M43.965,357.614L43.965,343.864L59.81,343.864L59.81,337.257L72.432,337.257L72.432,343.864L106.001,343.864L106.001,357.614L72.432,357.614L72.432,362.877L59.81,362.877L59.81,357.614L43.965,357.614Z" style="fill:none;fill-rule:nonzero;stroke:black;stroke-width:2px;"/>
    <path d="M35.478,328.262L35.478,312.524L48.906,312.524C51.735,312.524 54.492,312.99 57.178,313.921C59.828,314.852 63.193,316.929 67.275,320.151L62.764,326.543C58.932,322.998 55.083,321.118 51.216,320.903L51.216,328.262L35.478,328.262Z" style="fill:none;fill-rule:nonzero;stroke:black;stroke-width:2px;"/>
    <path d="M66.309,274.149L72.002,283.495C69.281,286.18 67.92,288.687 67.92,291.014C67.92,292.16 68.242,293.145 68.887,293.968C69.531,294.792 70.319,295.204 71.25,295.204C72.754,295.204 73.846,294.738 74.526,293.807C75.207,292.84 76.263,290.298 77.695,286.18C79.092,282.062 80.9,278.822 83.12,276.458C85.34,274.059 88.42,272.86 92.358,272.86C96.333,272.86 99.753,274.65 102.617,278.231C105.446,281.812 106.86,286.109 106.86,291.122C106.86,294.523 105.911,297.925 104.014,301.327C102.116,304.693 99.216,307.557 95.313,309.92L90.264,298.802C94.596,296.296 96.763,293.7 96.763,291.014C96.763,289.797 96.369,288.705 95.581,287.738C94.793,286.771 93.898,286.288 92.896,286.288C91.606,286.288 90.64,286.843 89.995,287.953C89.315,289.063 88.975,289.886 88.975,290.423C88.724,290.638 88.223,291.927 87.471,294.291C84.463,303.529 79.575,308.148 72.808,308.148C68.726,308.148 65.396,306.501 62.817,303.207C60.204,299.876 58.897,295.544 58.897,290.208C58.897,284.3 61.367,278.947 66.309,274.149Z" style="fill:none;fill-rule:nonzero;stroke:black;stroke-width:2px;"/>
    <path d="M59.81,216.573L66.631,216.573L66.631,216.358C64.339,214.997 62.531,213.422 61.206,211.632C59.845,209.805 59.165,208.122 59.165,206.583C59.165,205.652 59.237,204.81 59.38,204.058L74.419,204.058C74.204,205.204 74.097,206.332 74.097,207.442C74.097,210.271 75.099,212.473 77.105,214.049C79.074,215.588 81.849,216.358 85.43,216.358L106.001,216.358L106.001,230.323L59.81,230.323L59.81,216.573Z" style="fill:none;fill-rule:nonzero;stroke:black;stroke-width:2px;"/>
    <path d="M83.013,195.331C75.887,195.331 70.068,193.058 65.557,188.51C61.045,183.963 58.789,178.126 58.789,171C58.789,164.376 61.099,158.826 65.718,154.35C70.301,149.838 75.995,147.582 82.798,147.582C89.745,147.582 95.509,149.838 100.093,154.35C104.676,158.826 106.968,164.448 106.968,171.215C106.968,178.842 104.551,184.768 99.717,188.993C94.847,193.219 89.279,195.331 83.013,195.331ZM83.013,161.117C79.897,161.117 77.176,162.138 74.849,164.179C72.521,166.22 71.357,168.601 71.357,171.323C71.357,174.151 72.45,176.586 74.634,178.627C76.818,180.668 79.432,181.689 82.476,181.689C85.806,181.689 88.634,180.686 90.962,178.681C93.289,176.64 94.453,174.187 94.453,171.323C94.453,168.601 93.325,166.22 91.069,164.179C88.778,162.138 86.092,161.117 83.013,161.117Z" style="fill:none;fill-rule:nonzero;stroke:black;stroke-width:2px;"/>
    <rect x="34.297" y="120.164" width="71.704" height="13.75" style="fill:none;fill-rule:nonzero;stroke:black;stroke-width:2px;"/>
    <rect x="34.297" y="90.49" width="71.704" height="13.75" style="fill:none;fill-rule:nonzero;stroke:black;stroke-width:2px;"/>
</svg>
